# xmcd
#
# Track frame offsets:
#	150
#	21390
#	33605
#	52870
#	66007
#	81742
#	96475
#	110542
#	124952
#	138225
#	154650
#	169822
#	191457
#	204862
#	222517
#	235470
#	253292
#	269167
#	284445
#	300712
#	317992
#
# Disc length: 4458 seconds
#
# Revision: 1
# Processed by: cddbd v1.5.2PL0 Copyright (c) Steve Scherf et al.
# Submitted via: audiograbber 1.82.02
#
DISCID=4c116815
DTITLE=Paul McCloud - The Early Years
DYEAR=2004
DGENRE=Country
TTITLE0=Daisy Hill
TTITLE1=Tambar Springs
TTITLE2=Back Home Again
TTITLE3=Funny Face
TTITLE4=Daisy A Day
TTITLE5=The Great Snowman
TTITLE6=Blue Eyes Crying In The Rain
TTITLE7=Debutante Dance
TTITLE8=Hands Of Love
TTITLE9=Green Green Grass Of Home
TTITLE10=The Rodie
TTITLE11=The Drunkards Son
TTITLE12=Wooden Heart
TTITLE13=White Line Tonight
TTITLE14=Day Pass To Heaven
TTITLE15=Hele's Song
TTITLE16=Roisin
TTITLE17=Little Darlin'
TTITLE18=People On The Street
TTITLE19=He'll Have To Go
TTITLE20=Nobody's Child
EXTD=
EXTT0=
EXTT1=
EXTT2=
EXTT3=
EXTT4=
EXTT5=
EXTT6=
EXTT7=
EXTT8=
EXTT9=
EXTT10=
EXTT11=
EXTT12=
EXTT13=
EXTT14=
EXTT15=
EXTT16=
EXTT17=
EXTT18=
EXTT19=
EXTT20=
PLAYORDER=
